<!-- wildboard debug -->

<svg
   width="800"
   height="800"
   viewBox="0 0 800 800"
>

<g>
  <!-- d="M 327.342829 711.242927 l 5.696937 2.629932 c -0.751766 -0.884137 -1.496039 -1.755785 -2.230322 -2.629932 h -3.466615 z m 31.376859 -45.657912 c 0.2048 -1.4336 0.357151 -2.882185 0.477034 -4.518088 a 206.695649 206.695649 0 0 1 0.529483 -5.926712 l 0.19481 -1.980566 c 1.343688 -13.716605 1.383649 -23.237307 -0.681835 -39.264156 a 7.48519 7.48519 0 0 1 6.473679 -8.384313 7.487688 7.487688 0 0 1 8.389307 6.473679 c 2.225327 17.258146 2.180371 27.87278 0.734283 42.638361 l -0.19481 1.98556 -0.184819 1.913132 a 173.163395 173.163395 0 0 0 -0.312196 3.638947 81.877541 81.877541 0 0 1 -0.584429 5.532097 c -0.831688 5.864273 -10.344898 42.923083 -12.71758 52.795942 a 7.490185 7.490185 0 0 1 -7.285386 5.746887 H 327.342829 a 7.492683 7.492683 0 0 1 -5.696936 -2.629931 C 291.595239 688.432702 274.766673 661.394107 271.167688 641.680859 A 387.873717 387.873717 0 0 1 265.12359 585.797932 a 7.492683 7.492683 0 1 1 14.975376 -0.534478 372.910829 372.910829 0 0 0 5.811824 53.727531 c 2.907161 15.931941 17.870049 40.268176 44.898654 72.259435 h 16.868527 c 3.56402 -14.383454 10.439805 -41.432039 11.041717 -45.665405 z" -->
  <!-- d="M 327.342829 711.242927 l 5.696937 2.629932 c -0.751766 -0.884137 -1.496039 -1.755785 -2.230322 -2.629932 h -3.466615 z m 31.376859 -45.657912 c 0.2048 -1.4336 0.357151 -2.882185 0.477034 -4.518088 a 206.695649 206.695649 0 0 1 0.529483 -5.926712 l 0.19481 -1.980566 c 1.343688 -13.716605 1.383649 -23.237307 -0.681835 -39.264156 a 7.48519 7.48519 0 0 1 6.473679 -8.384313 7.487688 7.487688 0 0 1 8.389307 6.473679 c 2.225327 17.258146 2.180371 27.87278 0.734283 42.638361 l -0.19481 1.98556 -0.184819 1.913132 a 173.163395 173.163395 0 0 0 -0.312196 3.638947 81.877541 81.877541 0 0 1 -0.584429 5.532097 c -0.831688 5.864273 -10.344898 42.923083 -12.71758 52.795942 a 7.490185 7.490185 0 0 1 -7.285386 5.746887 H 327.342829 a 7.492683 7.492683 0 0 1 -5.696936 -2.629931 C 291.595239 688.432702 274.766673 661.394107 271.167688 641.680859 A 387.873717 387.873717 0 0 1 265.12359 585.797932 a 7.492683 7.492683 0 1 1 14.975376 -0.534478 372.910829 372.910829 0 0 0 5.811824 53.727531" -->
  <!-- d="M 327.342829 711.242927 m 31.376859 -45.657912 a 206.695649 206.695649 0 0 1 0.529483 -5.926712 l 0.19481 -1.980566 c 1.343688 -13.716605 1.383649 -23.237307 -0.681835 -39.264156 a 7.48519 7.48519 0 0 1 6.473679 -8.384313 7.487688 7.487688 0 0 1 8.389307 6.473679 c 2.225327 17.258146 2.180371 27.87278 0.734283 42.638361 l -0.19481 1.98556 -0.184819 1.913132 a 173.163395 173.163395 0 0 0 -0.312196 3.638947 81.877541 81.877541 0 0 1 -0.584429 5.532097 c -0.831688 5.864273 -10.344898 42.923083 -12.71758 52.795942 a 7.490185 7.490185 0 0 1 -7.285386 5.746887 H 327.342829 a 7.492683 7.492683 0 0 1 -5.696936 -2.629931 C 291.595239 688.432702 274.766673 661.394107 271.167688 641.680859 A 387.873717 387.873717 0 0 1 265.12359 585.797932" -->
  <!-- d="M 327.342829 711.242927 m 31.376859 -45.657912 a 206.695649 206.695649 0 0 1 0.529483 -5.926712 l 0.19481 -1.980566 c 1.343688 -13.716605 1.383649 -23.237307 -0.681835 -39.264156 a 7.48519 7.48519 0 0 1 6.473679 -8.384313 7.487688 7.487688 0 0 1 8.389307 6.473679 c 2.225327 17.258146 2.180371 27.87278 0.734283 42.638361 l -0.19481 1.98556 -0.184819 1.913132 a 173.163395 173.163395 0 0 0 -0.312196 3.638947 81.877541 81.877541 0 0 1 -0.584429 5.532097 c -0.831688 5.864273 -10.344898 42.923083 -12.71758 52.795942 a 7.490185 7.490185 0 0 1 -7.285386 5.746887 H 327.342829 a 7.492683 7.492683 0 0 1 -5.696936 -2.629931 C 291.595239 688.432702 274.766673 661.394107 271.167688 641.680859" -->
  <!-- d="M 327.342829 711.242927 m 31.376859 -45.657912 l 0.529483 -5.926712 l 0.19481 -1.980566 c 1.343688 -13.716605 1.383649 -23.237307 -0.681835 -39.264156 a 7.48519 7.48519 0 0 1 6.473679 -8.384313 7.487688 7.487688 0 0 1 8.389307 6.473679 c 2.225327 17.258146 2.180371 27.87278 0.734283 42.638361 l -0.19481 1.98556 -0.184819 1.913132 a 173.163395 173.163395 0 0 0 -0.312196 3.638947 81.877541 81.877541 0 0 1 -0.584429 5.532097 c -0.831688 5.864273 -10.344898 42.923083 -12.71758 52.795942 a 7.490185 7.490185 0 0 1 -7.285386 5.746887 H 327.342829 a 7.492683 7.492683 0 0 1 -5.696936 -2.629931 C 291.595239 688.432702 274.766673 661.394107 271.167688 641.680859" -->
  <!-- no arcs: d="M 327.342829 711.242927 m 31.376859 -45.657912 l 0.529483 -5.926712 l 0.19481 -1.980566 c 1.343688 -13.716605 1.383649 -23.237307 -0.681835 -39.264156 l 6.473679 -8.384313 l 8.389307 6.473679 c 2.225327 17.258146 2.180371 27.87278 0.734283 42.638361 l -0.19481 1.98556 -0.184819 1.913132 l -0.312196 3.638947 l -0.584429 5.532097 c -0.831688 5.864273 -10.344898 42.923083 -12.71758 52.795942 l -7.285386 5.746887 H 327.342829 l -5.696936 -2.629931 C 291.595239 688.432702 274.766673 661.394107 271.167688 641.680859" -->
  <path d="M 327.342829 711.242927 m 31.376859 -45.657912 l 0.529483 -5.926712 l 0.19481 -1.980566 c 1.343688 -13.716605 1.383649 -23.237307 -0.681835 -39.264156 a 7.48519 7.48519 0 0 1 6.473679 -8.384313 7.487688 7.487688 0 0 1 8.389307 6.473679 c 2.225327 17.258146 2.180371 27.87278 0.734283 42.638361 l -0.19481 1.98556 -0.184819 1.913132 a 173.163395 173.163395 0 0 0 -0.312196 3.638947 81.877541 81.877541 0 0 1 -0.584429 5.532097 c -0.831688 5.864273 -10.344898 42.923083 -12.71758 52.795942 a 7.490185 7.490185 0 0 1 -7.285386 5.746887 H 327.342829 a 7.492683 7.492683 0 0 1 -5.696936 -2.629931 C 291.595239 688.432702 274.766673 661.394107 271.167688 641.680859"
        style="fill:none;fill-opacity:0;stroke:#454545;stroke-width:2.0"
        />
</g>

</svg>
